<svg xmlns="http://www.w3.org/2000/svg" width="181" height="181" viewBox="0 0 181 181" fill="none">
<path d="M22.625 98.0417H30.1667V150.833C30.1667 159.152 36.9316 165.917 45.25 165.917H135.75C144.068 165.917 150.833 159.152 150.833 150.833V98.0417H158.375C159.866 98.0414 161.324 97.5989 162.564 96.7702C163.804 95.9414 164.77 94.7637 165.341 93.3858C165.912 92.008 166.061 90.4919 165.77 89.0291C165.479 87.5664 164.761 86.2228 163.707 85.168L95.832 17.293C95.1322 16.5921 94.3011 16.036 93.3862 15.6565C92.4713 15.2771 91.4905 15.0818 90.5 15.0818C89.5096 15.0818 88.5288 15.2771 87.6139 15.6565C86.699 16.036 85.8678 16.5921 85.1681 17.293L17.2931 85.168C16.2387 86.2228 15.5207 87.5664 15.2298 89.0291C14.9389 90.4919 15.0883 92.008 15.6589 93.3858C16.2296 94.7637 17.196 95.9414 18.4359 96.7702C19.6759 97.5989 21.1337 98.0414 22.625 98.0417ZM90.5 33.2889L135.75 78.5389V113.125L135.758 150.833H45.25V78.5389L90.5 33.2889Z" fill="#055F82"/>
<path d="M90.5002 135.75C118.427 135.75 127.462 109.06 127.831 107.929L113.502 103.245C113.442 103.419 107.612 120.667 90.5002 120.667C73.6219 120.667 67.7244 103.917 67.4906 103.2L53.1689 107.929C53.5385 109.06 62.5734 135.75 90.5002 135.75Z" fill="#055F82"/>
</svg>